<svg width="18" height="12" viewBox="0 0 18 12" fill="none" xmlns="http://www.w3.org/2000/svg">
<path fill-rule="evenodd" clip-rule="evenodd" d="M2.16793 0.375078H15.9524L16.37 0.375053C16.8314 0.375028 17.2055 0.748128 17.2055 1.20838V1.62508V10.3751V10.7918C17.2055 11.2519 16.8315 11.625 16.3702 11.6251H15.9524H2.16793H1.75017C1.2888 11.625 0.914795 11.2519 0.914795 10.7918V10.3751V1.62508V1.20841C0.914795 0.74817 1.28883 0.37507 1.75023 0.37507L2.16793 0.375078ZM2.16793 10.3751H15.9524V3.50008H2.16793V10.3751ZM9.68672 6.31259H3.42106C3.25489 6.31259 3.09552 6.24675 2.97801 6.1295C2.86051 6.01234 2.79449 5.85334 2.79449 5.68759C2.79449 5.52184 2.86051 5.36284 2.97801 5.24567C3.09552 5.12842 3.25489 5.06259 3.42106 5.06259H9.68672C9.85289 5.06259 10.0123 5.12842 10.1297 5.24567C10.2473 5.36284 10.3133 5.52184 10.3133 5.68759C10.3133 5.85334 10.2473 6.01234 10.1297 6.1295C10.0123 6.24675 9.85289 6.31259 9.68672 6.31259ZM7.80703 7.56259H3.42106C3.25489 7.56259 3.09552 7.62842 2.97801 7.74567C2.86051 7.86284 2.79449 8.02184 2.79449 8.18759C2.79449 8.35334 2.86051 8.51234 2.97801 8.6295C3.09552 8.74675 3.25489 8.81259 3.42106 8.81259H7.80703C7.97319 8.81259 8.13259 8.74675 8.25005 8.6295C8.36759 8.51234 8.43359 8.35334 8.43359 8.18759C8.43359 8.02184 8.36759 7.86284 8.25005 7.74567C8.13259 7.62842 7.97319 7.56259 7.80703 7.56259ZM12.8196 5.06259H14.0727C14.4187 5.06259 14.6993 5.34242 14.6993 5.68759V6.93759C14.6993 7.28275 14.4187 7.56259 14.0727 7.56259H12.8196C12.4735 7.56259 12.193 7.28275 12.193 6.93759V5.68759C12.193 5.34242 12.4735 5.06259 12.8196 5.06259ZM2.16793 2.43759V1.50009H15.9524V2.43759H2.16793Z" fill="black"/>
</svg>
