<svg width="24" height="24" viewBox="0 0 24 24" fill="none" xmlns="http://www.w3.org/2000/svg">
<path fill-rule="evenodd" clip-rule="evenodd" d="M17.4225 6.30002H20.25C20.4489 6.30002 20.6397 6.37904 20.7803 6.51969C20.921 6.66034 21 6.85111 21 7.05002C21 7.24893 20.921 7.4397 20.7803 7.58035C20.6397 7.721 20.4489 7.80002 20.25 7.80002H19.275L18.045 18.8625C17.9772 19.4487 17.6972 19.9897 17.2578 20.3835C16.8184 20.7773 16.25 20.9966 15.66 21H8.34C7.74997 20.9966 7.18161 20.7773 6.74221 20.3835C6.30282 19.9897 6.02279 19.4487 5.955 18.8625L4.7325 7.80002H3.75C3.55109 7.80002 3.36032 7.721 3.21967 7.58035C3.07902 7.4397 3 7.24893 3 7.05002C3 6.85111 3.07902 6.66034 3.21967 6.51969C3.36032 6.37904 3.55109 6.30002 3.75 6.30002H6.5775L7.5 4.37252C7.68343 3.96031 7.98655 3.61277 8.37 3.37502C8.75215 3.12842 9.1977 2.99815 9.6525 3.00002H14.3475C14.7981 3.00745 15.2378 3.13965 15.6178 3.38194C15.9978 3.62423 16.3032 3.96712 16.5 4.37252L17.4225 6.30002ZM9.1725 4.64252C9.02514 4.73109 8.90761 4.86168 8.835 5.01752L8.25 6.30002H15.75L15.165 5.01752C15.0924 4.86168 14.9749 4.73109 14.8275 4.64252C14.6857 4.54733 14.5183 4.49762 14.3475 4.50002H9.6525C9.48173 4.49762 9.31429 4.54733 9.1725 4.64252ZM16.26 19.2675C16.4271 19.1221 16.5318 18.918 16.5525 18.6975L17.76 7.80002H6.24L7.4475 18.6975C7.4682 18.918 7.57293 19.1221 7.74 19.2675C7.90451 19.4163 8.11818 19.4991 8.34 19.5H15.66C15.8818 19.4991 16.0955 19.4163 16.26 19.2675ZM10.35 16.05C10.5489 16.05 10.7397 15.971 10.8803 15.8303C11.021 15.6897 11.1 15.4989 11.1 15.3V11.175C11.1 10.9761 11.021 10.7853 10.8803 10.6447C10.7397 10.504 10.5489 10.425 10.35 10.425C10.1511 10.425 9.96031 10.504 9.81966 10.6447C9.67901 10.7853 9.59999 10.9761 9.59999 11.175V15.3C9.59999 15.4989 9.67901 15.6897 9.81966 15.8303C9.96031 15.971 10.1511 16.05 10.35 16.05ZM13.65 16.05C13.8489 16.05 14.0397 15.971 14.1803 15.8303C14.321 15.6897 14.4 15.4989 14.4 15.3V11.175C14.4 10.9761 14.321 10.7853 14.1803 10.6447C14.0397 10.504 13.8489 10.425 13.65 10.425C13.4511 10.425 13.2603 10.504 13.1197 10.6447C12.979 10.7853 12.9 10.9761 12.9 11.175V15.3C12.9 15.4989 12.979 15.6897 13.1197 15.8303C13.2603 15.971 13.4511 16.05 13.65 16.05Z" fill="#C00000"/>
</svg>
