<svg width="21" height="20" viewBox="0 0 21 20" fill="none" xmlns="http://www.w3.org/2000/svg">
<path d="M10.2468 4.375H9.89333H3.25066L2.60515 4.37629C2.31344 4.37688 2.07727 4.61223 2.07727 4.90234V14.9023C2.07727 15.2475 2.35863 15.5273 2.7057 15.5273H17.788C18.135 15.5273 18.4164 15.2475 18.4164 14.9023V4.90234C18.4164 4.61239 18.18 4.37734 17.8885 4.37734H17.243L10.6004 4.375H10.2468ZM10.2468 5.48828L16.6882 5.52734L10.2468 10.332L3.80545 5.52734L10.2468 5.48828ZM3.33413 6.73828L9.87372 11.6211C10.0956 11.7837 10.3981 11.7837 10.62 11.6211L17.1596 6.73828V14.2773H3.33413V6.73828Z" fill="black"/>
</svg>
