<svg width="21" height="20" viewBox="0 0 21 20" fill="none" xmlns="http://www.w3.org/2000/svg">
<path d="M4.59107 10.625H14.6459C14.8108 10.6243 14.9688 10.5593 15.0858 10.4438C15.1452 10.3858 15.1924 10.3168 15.2248 10.2407C15.2572 10.1645 15.274 10.0827 15.2744 10C15.2744 9.83425 15.2082 9.67525 15.0903 9.55808C14.9725 9.44083 14.8126 9.375 14.6459 9.375H4.59107C4.50793 9.37533 4.42568 9.39208 4.34909 9.42425C4.2725 9.4565 4.20309 9.50342 4.14489 9.5625C4.02879 9.67892 3.96334 9.836 3.96265 10C3.96265 10.1657 4.02886 10.3248 4.14671 10.4419C4.26456 10.5592 4.42441 10.625 4.59107 10.625Z" fill="black"/>
<path d="M4.59107 13.125H12.7606C12.9255 13.1243 13.0835 13.0593 13.2005 12.9438C13.26 12.8858 13.3071 12.8168 13.3396 12.7407C13.3719 12.6645 13.3887 12.5827 13.3891 12.5C13.3891 12.3342 13.3229 12.1752 13.205 12.0581C13.0872 11.9408 12.9273 11.875 12.7606 11.875H4.59107C4.50793 11.8753 4.42568 11.8921 4.34909 11.9243C4.2725 11.9565 4.20309 12.0034 4.14489 12.0625C4.02879 12.1789 3.96334 12.336 3.96265 12.5C3.96265 12.6657 4.02886 12.8248 4.14671 12.9419C4.26456 13.0592 4.42441 13.125 4.59107 13.125Z" fill="black"/>
<path d="M17.788 4.375H2.7057C2.53903 4.375 2.37918 4.44085 2.26133 4.55806C2.14348 4.67527 2.07727 4.83424 2.07727 5V15C2.07727 15.1657 2.14348 15.3247 2.26133 15.4419C2.37918 15.5592 2.53903 15.625 2.7057 15.625H17.788C17.9546 15.625 18.1145 15.5592 18.2323 15.4419C18.3502 15.3247 18.4164 15.1657 18.4164 15V5C18.4164 4.83424 18.3502 4.67527 18.2323 4.55806C18.1145 4.44085 17.9546 4.375 17.788 4.375ZM17.1596 14.375H3.33413V5.625H17.1596V14.375Z" fill="black"/>
<path d="M6.31925 6.25H4.43397C4.17366 6.25 3.96265 6.45987 3.96265 6.71875V7.65625C3.96265 7.91513 4.17366 8.125 4.43397 8.125H6.31925C6.57956 8.125 6.79057 7.91513 6.79057 7.65625V6.71875C6.79057 6.45987 6.57956 6.25 6.31925 6.25Z" fill="black"/>
</svg>
