<svg width="24" height="24" viewBox="0 0 24 24" fill="none" xmlns="http://www.w3.org/2000/svg">
<path d="M12 6C9.93782 6 8.25 7.68782 8.25 9.75C8.25 10.8867 8.78023 11.8967 9.58594 12.5859C8.78496 13.006 8.08715 13.6372 7.59375 14.3906C7.32602 14.0028 6.97617 13.6473 6.58594 13.3828C7.14355 12.837 7.5 12.0857 7.5 11.25C7.5 9.60203 6.14797 8.25 4.5 8.25C2.85203 8.25 1.5 9.60203 1.5 11.25C1.5 12.0857 1.85645 12.837 2.41406 13.3828C1.61329 13.9255 1.02629 14.7755 0.825503 15.755C0.742323 16.1608 1.08579 16.5 1.5 16.5C1.91421 16.5 2.23782 16.155 2.37366 15.7637C2.67924 14.8834 3.51686 14.25 4.5 14.25C5.74091 14.25 6.75 15.2591 6.75 16.5C6.75 16.9142 7.08579 17.25 7.5 17.25C7.91421 17.25 8.24219 16.9108 8.32453 16.5049C8.67159 14.794 10.1891 13.5 12 13.5C13.8109 13.5 15.3284 14.794 15.6755 16.5049C15.7578 16.9108 16.0858 17.25 16.5 17.25C16.9142 17.25 17.25 16.9142 17.25 16.5C17.25 15.2591 18.2591 14.25 19.5 14.25C20.4831 14.25 21.3208 14.8834 21.6263 15.7637C21.7622 16.155 22.0858 16.5 22.5 16.5C22.9142 16.5 23.2577 16.1608 23.1745 15.755C22.9737 14.7755 22.3867 13.9255 21.5859 13.3828C22.1436 12.837 22.5 12.0857 22.5 11.25C22.5 9.60203 21.148 8.25 19.5 8.25C17.852 8.25 16.5 9.60203 16.5 11.25C16.5 12.0857 16.8564 12.837 17.4141 13.3828C17.0238 13.6473 16.674 14.0028 16.4062 14.3906C15.9129 13.6372 15.215 13.006 14.4141 12.5859C15.2198 11.8967 15.75 10.8867 15.75 9.75C15.75 7.68782 14.0622 6 12 6ZM12 7.5C13.2515 7.5 14.25 8.49848 14.25 9.75C14.25 11.0015 13.2515 12 12 12C10.7485 12 9.75 11.0015 9.75 9.75C9.75 8.49848 10.7485 7.5 12 7.5ZM4.5 9.75C5.33731 9.75 6 10.4127 6 11.25C6 12.0873 5.33731 12.75 4.5 12.75C3.66269 12.75 3 12.0873 3 11.25C3 10.4127 3.66269 9.75 4.5 9.75ZM19.5 9.75C20.3373 9.75 21 10.4127 21 11.25C21 12.0873 20.3373 12.75 19.5 12.75C18.6627 12.75 18 12.0873 18 11.25C18 10.4127 18.6627 9.75 19.5 9.75Z" fill="black"/>
</svg>
