<svg width="24" height="24" viewBox="0 0 24 24" fill="none" xmlns="http://www.w3.org/2000/svg">
<path d="M12 3C8.91671 3 6.40003 5.57388 6.40003 8.72727C6.40003 10.6852 7.37634 12.4237 8.85003 13.4574C6.21624 14.6033 4.3221 17.1599 4.03726 20.2008C3.99605 20.6407 4.3582 21 4.80003 21C5.24186 21 5.59506 20.6402 5.64572 20.2013C6.02292 16.933 8.69141 14.4545 12 14.4545C15.3086 14.4545 17.9771 16.933 18.3543 20.2013C18.405 20.6402 18.7582 21 19.2 21C19.6418 21 20.004 20.6407 19.9628 20.2008C19.6779 17.1599 17.7838 14.6033 15.15 13.4574C16.6237 12.4237 17.6 10.6852 17.6 8.72727C17.6 5.57388 15.0833 3 12 3ZM12 4.63636C14.2186 4.63636 16 6.45824 16 8.72727C16 10.9963 14.2186 12.8182 12 12.8182C9.78142 12.8182 8.00003 10.9963 8.00003 8.72727C8.00003 6.45824 9.78142 4.63636 12 4.63636Z" fill="black"/>
</svg>
