<svg width="21" height="20" viewBox="0 0 21 20" fill="none" xmlns="http://www.w3.org/2000/svg">
<path d="M6.31826 3C5.99266 3 5.66759 3.11672 5.42945 3.35349L3.77034 4.98347C3.27555 5.47544 3.10439 6.20085 3.29632 6.86877L3.31607 6.8884V6.90804C3.77626 8.15 4.87609 10.6853 7.12807 12.8585C9.34657 14.9994 11.7909 16.1554 13.0732 16.6291C13.083 16.6327 13.1031 16.6452 13.1127 16.6487V16.6291C13.7827 16.8953 14.5496 16.7118 15.0286 16.1773C15.0413 16.1632 15.0558 16.1528 15.0681 16.1381L16.6877 14.5474C17.164 14.0738 17.164 13.2535 16.6877 12.7799L14.673 10.7179H14.6533V10.6983C14.177 10.2247 13.352 10.2247 12.8757 10.6983L12.856 10.7375L11.8881 11.6998C11.4822 11.4988 10.656 11.0638 9.85376 10.2662C9.05155 9.46858 8.61408 8.64708 8.4119 8.24342L9.41922 7.26153C9.89549 6.78798 9.89549 5.96763 9.41922 5.49408H9.39945V5.47444L7.20708 3.35349C7.20251 3.34895 7.19194 3.35794 7.18732 3.35349C6.95049 3.1257 6.63763 3 6.31826 3ZM6.31826 4.25686L8.51068 6.37781L7.18732 7.69357L6.89105 7.98815L7.04906 8.38092C7.04906 8.38092 7.71967 9.91175 8.96491 11.1499C10.2102 12.3881 11.7499 13.0548 11.7499 13.0548L12.1449 13.212L12.4412 12.9174L13.7645 11.6016L15.7792 13.6637L15.7594 13.6833L14.1398 15.2937L14.12 15.3133L14.1003 15.3329C13.9523 15.5095 13.7557 15.5508 13.567 15.4704H13.5472C12.4197 15.0573 10.0793 13.9455 8.01688 11.9551C5.98767 9.99683 4.95213 7.67162 4.5209 6.51528C4.46001 6.30339 4.54165 6.00368 4.67891 5.86721L6.31826 4.25686Z" fill="black"/>
</svg>
