<svg width="62" height="60" viewBox="0 0 62 60" fill="none" xmlns="http://www.w3.org/2000/svg">
<path d="M31.0916 7.5C23.341 7.5 17.0148 13.9347 17.0148 21.8182C17.0148 26.713 19.4689 31.0592 23.1734 33.6435C16.5528 36.5083 11.7914 42.8997 11.0754 50.502C10.9718 51.6017 11.8822 52.5 12.9928 52.5C14.1035 52.5 14.9913 51.6005 15.1186 50.5033C16.0668 42.3325 22.7746 36.1362 31.0916 36.1362C39.4084 36.1362 46.1163 42.3325 47.0644 50.5033C47.1919 51.6005 48.0797 52.5 49.1903 52.5C50.3009 52.5 51.2113 51.6017 51.1078 50.502C50.3916 42.8997 45.6304 36.5083 39.0098 33.6435C42.7142 31.0592 45.1684 26.713 45.1684 21.8182C45.1684 13.9347 38.8421 7.5 31.0916 7.5ZM31.0916 11.5909C36.6685 11.5909 41.1464 16.1456 41.1464 21.8182C41.1464 27.4908 36.6685 32.0455 31.0916 32.0455C25.5146 32.0455 21.0367 27.4908 21.0367 21.8182C21.0367 16.1456 25.5146 11.5909 31.0916 11.5909Z" fill="black"/>
</svg>
