<svg width="21" height="20" viewBox="0 0 21 20" fill="none" xmlns="http://www.w3.org/2000/svg">
<path d="M10.2468 1.875C9.07562 1.875 8.11068 2.67215 7.83132 3.75H2.7057C2.35863 3.75 2.07727 4.02982 2.07727 4.375V15.625C2.07727 15.9702 2.35863 16.25 2.7057 16.25H17.788C18.135 16.25 18.4164 15.9702 18.4164 15.625V4.375C18.4164 4.02982 18.135 3.75 17.788 3.75H12.6624C12.383 2.67215 11.4181 1.875 10.2468 1.875ZM10.2468 3.125C10.7559 3.125 11.1441 3.36567 11.3466 3.75H9.14709C9.34961 3.36567 9.73773 3.125 10.2468 3.125ZM3.33413 5H17.1596V10.625H3.33413V5ZM10.2468 8.75C9.89978 8.75 9.61841 9.02983 9.61841 9.375C9.61841 9.72017 9.89978 10 10.2468 10C10.5939 10 10.8753 9.72017 10.8753 9.375C10.8753 9.02983 10.5939 8.75 10.2468 8.75ZM3.33413 11.875H17.1596V15H3.33413V11.875Z" fill="black"/>
</svg>
