<svg width="20" height="18" viewBox="0 0 20 18" fill="none" xmlns="http://www.w3.org/2000/svg">
<g clip-path="url(#clip0_20_439)">
<path d="M4.91202 1.6875C4.59966 1.6875 4.34644 1.93934 4.34644 2.25V15.75C4.34644 16.0606 4.59966 16.3125 4.91202 16.3125H10.2143L10.0199 17.3321C9.93691 17.7204 10.2834 18.065 10.6739 17.9825L12.6535 17.5957L12.8302 17.5606L12.954 17.4375L18.5391 11.8652C19.1915 11.2163 19.1915 10.1587 18.5391 9.50978C18.2129 9.18533 17.7877 9.01755 17.3549 9.01755C16.9221 9.01755 16.4969 9.18533 16.1707 9.50978L15.6581 10.0196V5.625C15.6581 5.47789 15.6034 5.33598 15.5045 5.22663L15.4991 5.22071L12.1056 1.8457L12.0996 1.84037C11.9897 1.74196 11.847 1.6875 11.699 1.6875H4.91202ZM5.47761 2.8125H11.1335V5.625C11.1335 5.93566 11.3867 6.1875 11.699 6.1875H14.527V11.1446L10.5679 15.0644L10.4441 15.1875H5.47761V2.8125ZM12.2646 3.62109L13.714 5.0625H12.2646V3.62109ZM17.3549 10.1074C17.4877 10.1074 17.6175 10.1753 17.7437 10.3008C17.9963 10.5519 17.9963 10.8231 17.7437 11.0742L12.2646 16.5234L11.2925 16.7168L11.487 15.75L16.9307 10.3183L16.9661 10.3008C17.0923 10.1753 17.2221 10.1074 17.3549 10.1074Z" fill="black"/>
</g>
<defs>
<clipPath id="clip0_20_439">
<rect width="18.0987" height="18" fill="white" transform="translate(0.952881)"/>
</clipPath>
</defs>
</svg>
