<svg width="21" height="20" viewBox="0 0 21 20" fill="none" xmlns="http://www.w3.org/2000/svg">
<path d="M5.67419 2.5C5.32815 2.5 5.04763 2.77983 5.04763 3.125H2.54136C2.19532 3.125 1.91479 3.40482 1.91479 3.75V6.25V6.875V16.25C1.91479 16.5952 2.19532 16.875 2.54136 16.875H17.579C17.925 16.875 18.2055 16.5952 18.2055 16.25V6.25V5.625V3.75C18.2055 3.40482 17.925 3.125 17.579 3.125H15.0727C15.0727 2.77983 14.7922 2.5 14.4461 2.5C14.1001 2.5 13.8196 2.77983 13.8196 3.125H6.30076C6.30076 2.77983 6.02023 2.5 5.67419 2.5ZM3.16793 4.375H5.04763C5.04763 4.72017 5.32815 5 5.67419 5C6.02023 5 6.30076 4.72017 6.30076 4.375H13.8196C13.8196 4.72017 14.1001 5 14.4461 5C14.7922 5 15.0727 4.72017 15.0727 4.375H16.9524V5.625H3.16793V4.375ZM3.16793 6.875H16.9524V15.625H3.16793V6.875ZM11.3133 8.75C10.9673 8.75 10.6867 9.02983 10.6867 9.375V13.125C10.6867 13.4702 10.9673 13.75 11.3133 13.75H15.0727C15.4187 13.75 15.6993 13.4702 15.6993 13.125V9.375C15.6993 9.02983 15.4187 8.75 15.0727 8.75H11.3133ZM5.29825 9.375C5.15983 9.375 5.04763 9.48692 5.04763 9.625V10.375C5.04763 10.5131 5.15983 10.625 5.29825 10.625H6.05013C6.18855 10.625 6.30076 10.5131 6.30076 10.375V9.625C6.30076 9.48692 6.18855 9.375 6.05013 9.375H5.29825ZM7.80452 9.375C7.6661 9.375 7.55389 9.48692 7.55389 9.625V10.375C7.55389 10.5131 7.6661 10.625 7.80452 10.625H8.5564C8.69483 10.625 8.80703 10.5131 8.80703 10.375V9.625C8.80703 9.48692 8.69483 9.375 8.5564 9.375H7.80452ZM11.9399 10H14.4461V12.5H11.9399V10ZM5.29825 11.875C5.15983 11.875 5.04763 11.9869 5.04763 12.125V12.875C5.04763 13.0131 5.15983 13.125 5.29825 13.125H6.05013C6.18855 13.125 6.30076 13.0131 6.30076 12.875V12.125C6.30076 11.9869 6.18855 11.875 6.05013 11.875H5.29825ZM7.80452 11.875C7.6661 11.875 7.55389 11.9869 7.55389 12.125V12.875C7.55389 13.0131 7.6661 13.125 7.80452 13.125H8.5564C8.69483 13.125 8.80703 13.0131 8.80703 12.875V12.125C8.80703 11.9869 8.69483 11.875 8.5564 11.875H7.80452Z" fill="black"/>
</svg>
