<svg width="24" height="24" viewBox="0 0 24 24" fill="none" xmlns="http://www.w3.org/2000/svg">
<path d="M11.3085 3C15.8914 3 19.617 6.73575 19.617 11.3085C19.617 13.2784 18.9127 15.0749 17.7593 16.5038L20.7397 19.4843C21.0868 19.8313 21.0868 20.3927 20.7397 20.7397C20.3927 21.0868 19.8313 21.0868 19.4843 20.7397L16.5038 17.7593C15.0749 18.9127 13.2784 19.617 11.3085 19.617C6.73575 19.6272 3 15.8914 3 11.3085C3 6.72555 6.73575 3 11.3085 3ZM11.3085 4.74539C7.6748 4.74539 4.74539 7.6748 4.74539 11.3085C4.74539 14.9422 7.6748 17.8716 11.3085 17.8716C14.9422 17.8716 17.8716 14.9422 17.8716 11.3085C17.8716 7.6748 14.9422 4.74539 11.3085 4.74539Z" fill="rgba(0, 0, 0, 0.9)"/>
</svg>
