<svg width="24" height="24" viewBox="0 0 24 24" fill="none" xmlns="http://www.w3.org/2000/svg">
<path d="M12 3C8.91077 3 6.48082 5.34801 6.14062 8.34375C4.79494 8.5686 3.70539 9.4835 3.25781 10.7578C1.41281 11.2923 0 12.937 0 15C0 17.4929 2.00714 19.5 4.5 19.5H19.5C21.9929 19.5 24 17.4929 24 15C24 13.6797 23.3591 12.4982 22.4297 11.6719C22.2555 9.03623 20.153 6.93333 17.5078 6.79688C16.6049 4.59821 14.5332 3 12 3ZM12 4.5C14.0719 4.5 15.7283 5.82857 16.3125 7.71094L16.4766 8.25H17.0156H17.25C19.3159 8.25 21 9.93409 21 12V12.375L21.3047 12.6094C22.0127 13.1404 22.5 14.05 22.5 15C22.5 16.7071 21.2071 18 19.5 18H4.5C2.79286 18 1.5 16.7071 1.5 15C1.5 13.485 2.58664 12.3093 3.96094 12.0703L4.45312 11.9766L4.54688 11.4844C4.77159 10.4732 5.66711 9.75 6.75 9.75H7.5V9C7.5 6.47244 9.47244 4.5 12 4.5ZM12.5391 9.21094C12.2375 8.92253 11.7625 8.92253 11.4609 9.21094L9 11.6719C8.70228 11.9696 8.70228 12.4523 9 12.75C9.29772 13.0477 9.78041 13.0477 10.0781 12.75L11.25 11.5781V15.75C11.25 16.1642 11.5858 16.5 12 16.5C12.4142 16.5 12.75 16.1642 12.75 15.75V11.5781L13.9219 12.75C14.2196 13.0477 14.7023 13.0477 15 12.75C15.2977 12.4523 15.2977 11.9696 15 11.6719L12.5391 9.21094Z" fill="black"/>
</svg>
