<svg xmlns="http://www.w3.org/2000/svg" xmlns:xlink="http://www.w3.org/1999/xlink" version="1.1" width="2048" enable-background="new 0 0 2048 2048" xml:space="preserve" height="2048" style=""><rect id="backgroundrect" width="100%" height="100%" x="0" y="0" fill="none" stroke="none"/>









<g class="currentLayer" style=""><title>Layer 1</title><path fill="#6BCAE2" opacity="1.000000" stroke="none" d=" M996.000000,0.999997   C1015.020935,1.000000 1034.041870,1.000000 1053.882202,1.212120   C1064.508911,1.908268 1074.317993,2.358575 1084.123169,2.882008   C1133.951904,5.542029 1183.253052,12.166622 1232.118530,22.262442   C1324.389771,41.326122 1412.316406,72.548241 1496.004150,115.825264   C1591.073120,164.987854 1676.203369,227.694702 1751.632568,303.534424   C1826.357544,378.665955 1887.807129,463.528778 1936.164185,557.807739   C1981.945312,647.064880 2013.946167,741.052490 2032.010986,839.749084   C2041.142578,889.639709 2047.004761,939.886475 2048.192383,990.633911   C2048.234375,992.427917 2048.720703,994.211548 2049.000000,996.000000   C2049.000000,1015.354248 2049.000000,1034.708496 2048.776855,1054.875000   C2048.061279,1065.494995 2047.943970,1075.338501 2047.007446,1085.103638   C2044.066895,1115.767212 2041.801270,1146.540649 2037.480713,1177.017090   C2028.950195,1237.189819 2014.359497,1296.008789 1994.815674,1353.582031   C1968.068481,1432.375366 1932.360474,1506.853394 1887.449097,1576.909180   C1836.411621,1656.520874 1775.655029,1727.797119 1704.902100,1790.603149   C1637.583130,1850.361084 1563.734741,1900.433350 1483.279175,1940.698120   C1405.264526,1979.741455 1323.583130,2008.486572 1238.171753,2026.459717   C1179.195190,2038.870361 1119.665039,2046.785767 1059.344482,2048.184082   C1057.557617,2048.225586 1055.781250,2048.717773 1054.000000,2049.000000   C1034.979126,2049.000000 1015.958191,2049.000000 996.117798,2048.788086   C984.657349,2048.071533 974.013733,2047.617065 963.375916,2047.053833   C915.872925,2044.538208 868.859253,2038.092285 822.273926,2028.676025   C720.948303,2008.194946 624.837280,1973.265747 534.136169,1923.610229   C414.663757,1858.203247 312.220825,1772.420532 226.803360,1666.328247   C169.089096,1594.644653 121.983849,1516.532104 85.430389,1432.086670   C55.067627,1361.942749 32.725643,1289.327759 18.718235,1214.154053   C9.241205,1163.293457 3.234787,1112.071533 1.820454,1060.333130   C1.771690,1058.549194 1.283416,1056.777466 0.999998,1055.000000   C1.000000,1035.312500 1.000000,1015.624878 1.222984,995.125000   C1.568607,993.324524 1.783545,992.338013 1.800525,991.348083   C2.381304,957.492493 5.597189,923.853088 9.977613,890.303406   C18.261894,826.854065 32.608643,764.790527 52.639469,704.041260   C57.176350,690.281921 62.046314,676.621460 67.172050,663.070251   C72.297630,649.519470 77.715179,636.068176 83.411247,622.747131   C89.107529,609.425598 95.097130,596.218994 101.344917,583.146790   C107.592789,570.074463 114.089478,557.108398 120.900703,544.321411   C127.712212,531.533875 135.261673,519.139771 142.093536,506.362488   C148.813293,493.794739 156.889511,482.071716 164.543243,470.124512   C201.508530,412.423065 244.050873,359.085724 291.920532,310.032135   C300.297913,301.447571 308.865845,293.040527 317.552795,284.768890   C326.238525,276.498413 335.081451,268.385345 344.044220,260.415619   C353.007172,252.445755 362.107574,244.623169 371.325104,236.949112   C380.414612,229.381638 389.615143,221.937241 398.971649,214.703629   C408.460388,207.367813 418.109741,200.230774 427.854279,193.237335   C437.598846,186.243866 447.724335,179.773407 457.357910,172.635193   C466.787872,165.647858 477.179901,160.227188 487.044586,153.982986   C505.465485,142.322861 524.483398,131.530365 543.714233,121.238968   C613.188293,84.059853 686.099548,55.481873 762.280212,35.329399   C836.967102,15.572102 912.870361,3.978349 990.156372,1.827079   C992.110413,1.772686 994.052368,1.285393 996.000000,0.999997  M1117.497314,68.958054   C1105.376465,68.009193 1093.270264,66.753357 1081.131958,66.167755   C1041.162842,64.239479 1001.214294,64.141899 961.236633,66.753807   C919.264282,69.496040 877.682007,74.973549 836.493469,83.261032   C741.752380,102.323753 651.803101,134.704742 566.856750,180.932846   C478.322205,229.113693 399.226501,289.554352 329.658173,362.495148   C260.908142,434.577972 204.747314,515.439209 161.228821,604.987122   C105.635864,719.380737 74.105316,840.214172 66.258751,967.131653   C63.769039,1007.402649 64.076576,1047.719116 66.700432,1088.031738   C69.801430,1135.675049 76.411148,1182.787842 86.574242,1229.406616   C106.185715,1319.366089 138.039703,1404.766113 182.220840,1485.568848   C237.071930,1585.885986 307.491791,1673.751831 393.689514,1748.802979   C494.320312,1836.420288 608.362976,1900.385620 735.580566,1940.775146   C811.550781,1964.894287 889.375305,1979.247437 968.894836,1983.815430   C1026.547729,1987.127563 1084.110840,1985.413574 1141.516724,1978.276001   C1204.555176,1970.437988 1266.285278,1956.927124 1326.529785,1936.893799   C1454.138550,1894.459229 1568.121582,1828.361084 1668.077271,1738.383179   C1756.099976,1659.147095 1827.034058,1566.615723 1880.741943,1461.071411   C1936.454712,1351.587036 1970.056763,1235.614990 1981.294312,1113.202515   C1985.950439,1062.481323 1986.509033,1011.744812 1983.215942,960.929993   C1980.042114,911.956482 1972.995239,863.560608 1962.313232,815.671631   C1939.740356,714.473938 1901.701416,619.444336 1848.397827,530.549194   C1803.219849,455.204956 1748.620239,387.389404 1684.758179,327.044495   C1622.009521,267.751556 1552.521606,217.817841 1476.336304,177.239151   C1403.306641,138.341217 1326.506592,109.394653 1245.962402,90.380554   C1203.911621,80.453552 1161.379517,73.456703 1117.497314,68.958054  z" id="svg_1" class=""/><path fill="#FFFFFF" opacity="1.000000" stroke="none" d="M1056.9686279766693,1671.500005459965 C1057.8457028661987,1671.3249993201673 1059.032645405855,1671.0197990844406 1060.2266025561075,1670.9940628691736 C1100.5319195987354,1670.1269817239574 1140.3090988719723,1665.2187176351558 1179.7163787119034,1657.5230014250083 C1236.7870159912045,1646.3780339822365 1291.3653343290873,1628.5534744461247 1343.4935857627456,1604.3430929334716 C1397.2528223605455,1579.3753117944057 1446.5972395835545,1548.3260004826784 1491.5787941940855,1511.2707027024474 C1538.8548701600207,1472.3253117004967 1579.451539434636,1428.1276250981782 1613.5540370497608,1378.7612099441294 C1643.5631645982016,1335.3203177603857 1667.4227344475876,1289.1372375447725 1685.2948189819754,1240.2782786211997 C1698.3537166682152,1204.5776871184426 1708.1030084190063,1168.1046321429567 1713.8029762181736,1130.7921247521951 C1716.6899094354142,1111.8939885208033 1718.2037670399568,1092.811688040437 1720.1686003609593,1073.797512507495 C1720.7943720483465,1067.7422487270487 1720.8727562124209,1061.6383891135683 1721.3508936664252,1055.3436279732878 C1721.499995903188,1260.5418691499967 1721.499995903188,1465.9531906124557 1721.499995903188,1671.500005459965 C1500.0939167275346,1671.500005459965 1278.6878375518818,1671.500005459965 1056.9686279766693,1671.500005459965 z" id="svg_2" class=""/><path fill="#FFFFFF" opacity="1.000000" stroke="none" d="M1693.963535096362,995.5313720250979 C1693.7839321619047,994.6826544829576 1693.471197202672,993.535684191157 1693.4441940969327,992.3820422185114 C1692.6804895235714,959.7487220547301 1688.910791785588,927.4373595245602 1683.038688900606,895.3550147377979 C1671.4220424531331,831.8878170831866 1650.8437782285182,771.448748426425 1621.4040608238845,714.0516247735812 C1590.307883065743,653.4252018145643 1550.7925077227112,598.8538600632036 1502.740344731878,550.540260426011 C1454.2353286229938,501.7712560341797 1399.4920176261699,461.44739322374005 1338.3575765550795,429.83321394676705 C1284.5418735560834,402.0037695725857 1228.0003365436728,381.9262743170879 1168.6649851091208,369.6673067322059 C1137.2418647660515,363.175153584293 1105.5385852717739,358.91518536986456 1073.4960390707952,357.20464935509165 C1067.19078558626,356.86805389294284 1060.8830203344592,356.578482366551 1054.3508300278863,356.13082190612147 C1267.3577740702574,355.99441738170094 1480.5903205984969,355.99441738170094 1693.963535096362,355.99441738170094 C1693.963535096362,569.0729120662494 1693.963535096362,782.1514459770659 1693.963535096362,995.5313720250979 z" id="svg_3" class=""/><path fill="#FFFFFF" opacity="1.000000" stroke="none" d="M353.8965542452915,1057.9686279750536 C354.0794169550431,1058.81309679251 354.3944537795964,1059.956224550884 354.425916556055,1061.1072289718572 C355.3384512746371,1094.489105108167 359.21382218043993,1127.537746412992 365.3284492902116,1160.353257086773 C374.3660989224733,1208.855707817604 388.7812586352193,1255.707262200127 408.3714643908986,1300.964470516686 C431.9559394291706,1355.4490864810584 462.34848016384075,1405.847693399974 499.58601167686965,1452.0983064294005 C554.6977868993786,1520.5495788215555 620.7944785012514,1575.8970151691049 697.8786756901399,1618.0979267738533 C756.3994857125847,1650.1359151006345 818.4107979890774,1672.6724088257797 883.7865962413047,1685.886903334162 C913.8436819940963,1691.962321336285 944.1771380811947,1696.1212630641576 974.8263052320679,1697.7443568839535 C981.6898779143313,1698.1077569846486 988.5571921403704,1698.4009820090837 995.6491699722817,1698.8633055850762 C781.9295828704225,1699.0000335567447 567.9836585009297,1699.0000335567447 353.89655553570145,1699.0000335567447 C353.89655553570145,1485.4237116435802 353.89655553570145,1271.8473110154064 353.8965542452915,1057.9686279750536 z" id="svg_4" class=""/><path fill="#FFFFFF" opacity="1.000000" stroke="none" d="M995.5313720249434,353.5000224660689 C994.5770453608598,353.6841741063775 993.3239997727812,353.99859969489603 992.0631556986524,354.033696753619 C942.1943919509121,355.42180275106267 893.2178483076576,362.90266664642735 845.0261662131649,375.65105362666543 C795.8706271187486,388.6544283879593 748.824672707332,407.09435709650205 703.9965668197564,431.08416428534844 C691.5878792076246,437.7246835589749 679.3165794199816,444.68853673639444 667.4305026466315,452.21222713483047 C661.0653190985909,456.24129565967866 654.3598670723418,459.738980532876 648.2751883440249,464.24755529087867 C642.0591284192716,468.85348465559656 635.5256612078334,473.0285454076703 629.2379837451291,477.541078126407 C622.9503249946615,482.0535914876573 616.724084322523,486.6587626841551 610.6014797614599,491.39219465026974 C604.56419848402,496.0596795314705 598.6275600049975,500.8631733388736 592.7625590666621,505.7460825250285 C586.8149519905548,510.6977643438727 580.9429217036318,515.7452844329919 575.1595809672294,520.8878355851999 C569.3763583114946,526.0302976929703 563.6704642974698,531.2652511616045 558.066000931562,536.6017727165095 C552.4607503612041,541.9390427608913 546.9322961016783,547.3636841109651 541.5267947889788,552.9028701609911 C510.63891890474036,584.5546763438688 483.1884912672947,618.9705715731059 459.3366564990283,656.2024042309689 C454.3980893772691,663.9113322247046 449.1869133545184,671.4756075292784 444.8509931803588,679.5849419044462 C440.44273666025026,687.8294779986304 435.5714503542229,695.8267680158486 431.17632724343633,704.0779198536596 C426.78138738352163,712.3287174494681 422.5894017357756,720.6950650440263 418.55796514508233,729.1299781461684 C414.52658340060077,737.564811882616 410.66179605619726,746.0863671584598 406.9862726642796,754.6820803197293 C403.31088735576543,763.277478599219 399.8152163064108,771.9569199872263 396.50793812265067,780.7005553171228 C393.20055927996094,789.4444668138264 390.0582172049378,798.2588731142656 387.13079678547,807.1370803996186 C374.20591534132234,846.3355175381506 364.9486820183458,886.3819874467982 359.60325343866543,927.3226461163059 C356.77678682789764,948.9705632984957 354.7017384817629,970.6763742059775 354.32699109389927,992.5216783872264 C354.31603475655595,993.1604302733447 354.17734610897634,993.7969760512545 353.95433302407554,994.6563110124717 C353.8104526986241,781.1323892230924 353.8104526986241,567.3867216189269 353.8104526986241,353.5000244018176 C567.6165924452797,353.5000244018176 781.4227715521578,353.5000244018176 995.5313720249434,353.5000224660689 z" id="svg_5" class=""/><path fill="#FFFFFF" opacity="1.000000" stroke="none" d=" M1117.955811,68.988037   C1161.379517,73.456703 1203.911621,80.453552 1245.962402,90.380554   C1326.506592,109.394653 1403.306641,138.341217 1476.336304,177.239151   C1552.521606,217.817841 1622.009521,267.751556 1684.758179,327.044495   C1748.620239,387.389404 1803.219849,455.204956 1848.397827,530.549194   C1901.701416,619.444336 1939.740356,714.473938 1962.313232,815.671631   C1972.995239,863.560608 1980.042114,911.956482 1983.215942,960.929993   C1986.509033,1011.744812 1985.950439,1062.481323 1981.294312,1113.202515   C1970.056763,1235.614990 1936.454712,1351.587036 1880.741943,1461.071411   C1827.034058,1566.615723 1756.099976,1659.147095 1668.077271,1738.383179   C1568.121582,1828.361084 1454.138550,1894.459229 1326.529785,1936.893799   C1266.285278,1956.927124 1204.555176,1970.437988 1141.516724,1978.276001   C1084.110840,1985.413574 1026.547729,1987.127563 968.894836,1983.815430   C889.375305,1979.247437 811.550781,1964.894287 735.580566,1940.775146   C608.362976,1900.385620 494.320312,1836.420288 393.689514,1748.802979   C307.491791,1673.751831 237.071930,1585.885986 182.220840,1485.568848   C138.039703,1404.766113 106.185715,1319.366089 86.574242,1229.406616   C76.411148,1182.787842 69.801430,1135.675049 66.700432,1088.031738   C64.076576,1047.719116 63.769039,1007.402649 66.258751,967.131653   C74.105316,840.214172 105.635864,719.380737 161.228821,604.987122   C204.747314,515.439209 260.908142,434.577972 329.658173,362.495148   C399.226501,289.554352 478.322205,229.113693 566.856750,180.932846   C651.803101,134.704742 741.752380,102.323753 836.493469,83.261032   C877.682007,74.973549 919.264282,69.496040 961.236633,66.753807   C1001.214294,64.141899 1041.162842,64.239479 1081.131958,66.167755   C1093.270264,66.753357 1105.376465,68.009193 1117.955811,68.988037  M1349.275024,1530.199097   C1352.542114,1573.056641 1355.838135,1615.912109 1359.061646,1658.772949   C1360.325439,1675.575195 1361.973022,1692.310547 1367.101196,1708.470703   C1371.989624,1723.875366 1379.185791,1737.785034 1393.471680,1746.676025   C1407.471313,1755.388916 1423.181763,1758.727051 1439.283081,1758.871216   C1492.441772,1759.347290 1545.605957,1759.214478 1598.767944,1759.301025   C1599.568481,1759.302368 1600.369141,1759.119019 1601.328369,1759.002563   C1601.328369,1709.282593 1601.328369,1659.727783 1601.328369,1610.263794   C1600.656494,1610.081177 1600.336060,1609.918457 1600.015381,1609.917969   C1587.349365,1609.897095 1574.683350,1609.922485 1562.017456,1609.875488   C1542.650879,1609.803467 1532.540283,1600.883667 1530.914185,1581.616455   C1526.864502,1533.634766 1523.059692,1485.632202 1519.211182,1437.633789   C1514.177246,1374.854492 1509.195679,1312.070801 1504.192383,1249.289062   C1497.839233,1169.565796 1491.469849,1089.843750 1485.139771,1010.118713   C1480.299805,949.161926 1475.516235,888.200623 1470.689941,827.242737   C1470.063599,819.331116 1469.331055,811.427979 1468.636108,803.386230   C1467.018433,803.314880 1465.875854,803.220581 1464.733276,803.220398   C1406.402954,803.212952 1348.072388,803.257202 1289.742432,803.109497   C1286.064697,803.100159 1284.963989,804.848450 1283.773804,807.617493   C1270.824951,837.746765 1257.804321,867.845154 1244.794922,897.948364   C1193.220581,1017.289795 1141.100220,1136.399658 1090.365601,1256.096924   C1072.912964,1297.272339 1058.927734,1339.916870 1043.293457,1381.865845   C1042.723755,1383.394531 1041.461914,1384.665039 1040.522583,1386.055786   C1039.584595,1384.622070 1038.354126,1383.299927 1037.756470,1381.736206   C1034.190918,1372.406494 1030.770264,1363.021362 1027.302979,1353.654175   C1015.225647,1321.027100 1004.511414,1287.816772 990.839905,1255.871948   C926.785095,1106.201782 861.904236,956.885010 797.416138,807.399841   C795.995300,804.106201 794.283569,803.124756 790.779175,803.131775   C733.115662,803.247253 675.451904,803.213623 617.788147,803.213440   C616.171509,803.213440 614.554810,803.213379 612.810059,803.213379   C612.539795,804.491821 612.282532,805.274292 612.218994,806.072205   C609.850098,835.802429 607.496155,865.533875 605.146118,895.265625   C600.958130,948.251404 596.796021,1001.239197 592.582275,1054.222900   C587.734558,1115.179321 582.833496,1176.131348 577.972900,1237.086670   C574.807556,1276.782593 571.681030,1316.481567 568.523010,1356.178101   C564.004150,1412.982300 559.495239,1469.787109 554.933472,1526.587891   C553.386536,1545.850098 552.011353,1565.134521 549.966431,1584.345825   C548.248596,1600.484741 538.192993,1609.369629 521.989990,1609.908691   C513.999023,1610.174683 505.992950,1609.992920 497.993713,1610.004028   C491.894684,1610.012573 485.795624,1610.005859 479.552368,1610.005859   C479.552368,1660.051392 479.552368,1709.466064 479.552368,1759.094971   C481.132050,1759.178833 482.437622,1759.307007 483.743378,1759.308838   C532.574158,1759.378540 581.405090,1759.503784 630.235657,1759.429321   C638.213745,1759.417114 646.221619,1758.813477 654.162415,1757.976929   C686.444458,1754.576294 708.009521,1737.891724 716.119629,1705.978638   C719.384460,1693.131104 721.826782,1679.906372 722.933899,1666.709839   C726.527710,1623.873657 729.316406,1580.970337 732.441223,1538.094604   C736.268433,1485.580933 740.135437,1433.070190 743.959534,1380.556274   C746.464539,1346.155762 748.632568,1311.727783 751.468201,1277.354858   C756.433655,1217.164917 758.848816,1156.939819 755.592712,1096.572388   C755.528320,1095.379395 755.713867,1094.172974 755.782776,1092.972900   C756.237549,1092.845459 756.692322,1092.717896 757.147034,1092.590454   C757.802124,1094.015625 758.683350,1095.380981 759.079407,1096.874756   C771.865417,1145.096802 788.500732,1192.065186 808.688782,1237.568604   C861.142456,1355.798218 914.653442,1473.558350 967.618530,1591.561646   C969.104980,1594.873413 971.041077,1595.291382 974.119873,1595.286255   C1017.950867,1595.213135 1061.782593,1595.124023 1105.612305,1595.384644   C1110.817505,1595.415649 1113.031128,1593.716797 1115.080200,1589.145996   C1157.095825,1495.421631 1199.318848,1401.790283 1241.432495,1308.109497   C1261.563721,1263.327759 1282.925781,1219.051270 1298.399170,1172.322266   C1306.457031,1147.987793 1314.166992,1123.538330 1322.080688,1099.155884   C1322.653687,1097.390137 1323.607910,1095.747925 1324.385010,1094.048340   C1324.978882,1094.233887 1325.572754,1094.419434 1326.166626,1094.604980   C1325.818726,1100.488281 1325.185669,1106.370850 1325.168457,1112.255127   C1325.040283,1156.070068 1323.902954,1199.882324 1327.687500,1243.653076   C1331.390381,1286.478882 1334.151611,1329.385986 1337.365234,1372.254517   C1341.288696,1424.593384 1345.252930,1476.929077 1349.275024,1530.199097  M648.114868,599.343811   C649.129456,603.719727 650.013916,608.130554 651.177917,612.466370   C670.569458,684.700317 747.757141,729.549438 820.258118,710.739624   C894.544678,691.466492 939.231995,618.997986 923.075195,544.003235   C906.392578,466.568359 826.386719,418.005402 749.960266,438.923950   C679.527161,458.202057 636.598511,525.386841 648.114868,599.343811  M1194.481567,597.005005   C1160.626221,639.263306 1165.090210,697.874878 1200.270630,734.919678   C1229.246826,765.431580 1278.507690,775.901001 1316.224243,758.898499   C1365.509277,736.680908 1389.457275,686.895264 1376.085571,634.452881   C1366.050171,595.095032 1328.146606,562.653564 1287.690796,558.950012   C1250.367065,555.533142 1219.379639,567.949036 1194.481567,597.005005  z" id="svg_6" class=""/><path fill="#2E3192" opacity="1.000000" stroke="none" d="M1351.435106589966,1528.0843047939454 C1347.450731589966,1475.2807157939453 1343.486497589966,1422.9450227939453 1339.563035589966,1370.6061557939454 C1336.3494125899658,1327.7376247939453 1333.5881825899658,1284.8305207939454 1329.8853015899658,1242.0047147939454 C1326.1007555899657,1198.2339627939452 1327.2380845899659,1154.4217067939453 1327.3662585899658,1110.6067657939452 C1327.3834705899658,1104.7224887939453 1328.0165275899658,1098.8399197939452 1328.3644275899658,1092.9566187939454 C1327.7705555899659,1092.7710727939452 1327.176683589966,1092.5855257939454 1326.5828115899658,1092.3999787939454 C1325.8057115899658,1094.0995637939452 1324.8514885899658,1095.7417757939454 1324.2784895899658,1097.5075227939453 C1316.3647935899658,1121.8899687939454 1308.6548325899657,1146.3394317939453 1300.5969715899657,1170.6739047939452 C1285.1235825899657,1217.4029087939452 1263.7615225899658,1261.6793977939453 1243.6302965899658,1306.4611357939452 C1201.5166495899657,1400.1419217939454 1159.293626589966,1493.7732697939452 1117.278001589966,1587.4976347939453 C1115.228929589966,1592.0684357939454 1113.0153065899658,1593.7672877939453 1107.810106589966,1593.7362827939453 C1063.9803945899657,1593.4756617939454 1020.1486685899658,1593.5647737939453 976.3176745899658,1593.6378937939453 C973.2388785899658,1593.6430207939454 971.3027815899658,1593.2250517939453 969.8163315899658,1589.9132847939454 C916.8512435899659,1471.9099887939453 863.3402575899659,1354.1498567939452 810.8865835899658,1235.9202427939454 C790.6985335899658,1190.4168247939454 774.0632185899658,1143.4484407939453 761.2772085899658,1095.2263947939452 C760.8811515899658,1093.7326197939453 759.9999255899659,1092.3672637939453 759.3448355899658,1090.9420927939452 C758.8901235899658,1091.0695347939454 758.4353505899658,1091.1970977939452 757.9805775899658,1091.3245387939453 C757.9116685899659,1092.5246127939454 757.7261215899658,1093.7310337939452 757.7905135899658,1094.9240267939454 C761.0466175899659,1155.2914577939453 758.6314565899659,1215.5165557939454 753.6660025899658,1275.7064967939452 C750.8303695899658,1310.0794217939454 748.6623405899658,1344.5074007939454 746.1573355899658,1378.9079127939453 C742.3332385899658,1431.4218287939452 738.4662345899658,1483.9325717939453 734.6390245899659,1536.4462427939452 C731.5142075899658,1579.3219757939453 728.7255115899658,1622.2252957939454 725.1317005899658,1665.0614777939454 C724.0245835899658,1678.2580107939452 721.5822615899658,1691.4827427939454 718.3174305899659,1704.3302767939454 C710.2073225899658,1736.2433627939454 688.6422595899659,1752.9279327939453 656.3602165899658,1756.3285677939452 C648.4194205899659,1757.1651157939452 640.4115465899658,1757.7687527939454 632.4334585899658,1757.7809597939454 C583.6028915899658,1757.8554227939453 534.7719595899658,1757.7301787939452 485.9411795899658,1757.6604767939452 C484.6354235899658,1757.6586457939454 483.3298515899658,1757.5304717939453 481.7501695899658,1757.4466097939453 C481.7501695899658,1707.8177027939453 481.7501695899658,1658.4030307939454 481.7501695899658,1608.3574977939454 C487.9934255899658,1608.3574977939454 494.0924855899658,1608.3642117939453 500.1915145899659,1608.3556667939454 C508.1907515899659,1608.3445587939452 516.1968245899658,1608.5263217939453 524.1877915899659,1608.2603297939454 C540.3907945899658,1607.7212677939453 550.4463975899658,1598.8363797939453 552.1642325899659,1582.6974637939454 C554.2091545899658,1563.4861597939453 555.5843375899658,1544.2017367939452 557.1312735899659,1524.9395297939452 C561.6930405899658,1468.1387477939454 566.2019515899658,1411.3339387939452 570.7208115899658,1354.5297397939453 C573.8788315899658,1314.8332057939454 577.0053575899658,1275.1342317939452 580.1707015899658,1235.4383087939452 C585.0312975899658,1174.4829867939452 589.9323595899658,1113.5309597939454 594.7800765899658,1052.5745387939453 C598.9938225899658,999.5908357939452 603.1559315899658,946.6030427939454 607.3439195899658,893.6172637939453 C609.6939565899659,863.8855137939453 612.0478995899658,834.1540677939453 614.4167955899658,804.4238437939454 C614.4803335899658,803.6259307939453 614.7375965899658,802.8434597939453 615.0078605899658,801.5650177939453 C616.7526115899658,801.5650177939453 618.3693105899658,801.5650787939453 619.9859485899658,801.5650787939453 C677.6497055899658,801.5652617939453 735.3134635899659,801.5988917939453 792.9769765899658,801.4834137939453 C796.4813705899659,801.4763947939454 798.1931015899659,802.4578397939454 799.6139395899659,805.7514797939454 C864.1020375899658,955.2366487939453 928.9828965899658,1104.5534207939454 993.0377065899659,1254.2235867939453 C1006.7092155899659,1286.1684107939452 1017.4234485899658,1319.3787387939453 1029.5007805899659,1352.0058137939452 C1032.9680655899658,1361.3730007939453 1036.3887195899658,1370.7581327939454 1039.9542715899659,1380.0878447939454 C1040.5519275899658,1381.6515657939453 1041.7823965899659,1382.9737087939452 1042.7203845899658,1384.4074247939452 C1043.6597155899658,1383.0166777939453 1044.9215565899658,1381.7461697939452 1045.4912585899658,1380.2174837939453 C1061.125535589966,1338.2685087939453 1075.110765589966,1295.6239777939454 1092.5634025899658,1254.4485627939453 C1143.2980215899659,1134.7512967939454 1195.4183825899659,1015.6414337939455 1246.9927235899659,896.3000027939453 C1260.002122589966,866.1967927939453 1273.0227525899659,836.0984037939453 1285.9716055899657,805.9691317939453 C1287.161790589966,803.2000887939453 1288.2624985899658,801.4517977939453 1291.9402335899658,801.4611357939453 C1350.2701895899659,801.6088407939453 1408.6007555899657,801.5645907939453 1466.9310775899658,801.5720367939454 C1468.0736555899657,801.5722197939454 1469.2162345899658,801.6665187939453 1470.8339095899657,801.7378687939453 C1471.528856589966,809.7796177939454 1472.261400589966,817.6827547939453 1472.887742589966,825.5943757939453 C1477.7140365899659,886.5522617939453 1482.497606589966,947.5135647939453 1487.337572589966,1008.4703517939452 C1493.667650589966,1088.1953887939453 1500.0370345899657,1167.9174347939454 1506.3901845899659,1247.6407007939454 C1511.3934805899657,1310.4224397939454 1516.3750475899658,1373.2061307939452 1521.4089835899658,1435.9854277939453 C1525.2574935899659,1483.9838407939453 1529.0623035899657,1531.9864047939452 1533.111986589966,1579.9680937939454 C1534.7380845899659,1599.2353057939454 1544.8486805899659,1608.1551057939453 1564.2152575899659,1608.2271267939452 C1576.8811515899658,1608.2741237939454 1589.5471665899659,1608.2487337939453 1602.2131825899658,1608.2696077939454 C1602.533861589966,1608.2700957939453 1602.854295589966,1608.4328157939453 1603.526170589966,1608.6154327939453 C1603.526170589966,1658.0794217939454 1603.526170589966,1707.6342317939452 1603.526170589966,1757.3542017939453 C1602.5669425899657,1757.4706577939453 1601.7662825899658,1757.6540067939452 1600.9657455899658,1757.6526637939453 C1547.8037585899658,1757.5661167939454 1494.6395735899657,1757.6989287939452 1441.4808825899659,1757.2228547939453 C1425.3795645899659,1757.0786897939454 1409.6691145899658,1753.7405547939454 1395.669481589966,1745.0276637939453 C1381.383592589966,1736.1366727939453 1374.1874255899659,1722.2270047939453 1369.298997589966,1706.8223417939453 C1364.1708235899657,1690.6621857939454 1362.5232405899658,1673.9268337939452 1361.259447589966,1657.1245877939452 C1358.0359365899658,1614.2637477939454 1354.739915589966,1571.4082797939452 1351.435106589966,1528.0843047939454 z" id="svg_7" class=""/><path fill="#2E3192" opacity="1.000000" stroke="none" d=" M648.059875,598.915649   C636.598511,525.386841 679.527161,458.202057 749.960266,438.923950   C826.386719,418.005402 906.392578,466.568359 923.075195,544.003235   C939.231995,618.997986 894.544678,691.466492 820.258118,710.739624   C747.757141,729.549438 670.569458,684.700317 651.177917,612.466370   C650.013916,608.130554 649.129456,603.719727 648.059875,598.915649  z" id="svg_8"/><path fill="#2E3192" opacity="1.000000" stroke="none" d=" M1194.703125,596.726196   C1219.379639,567.949036 1250.367065,555.533142 1287.690796,558.950012   C1328.146606,562.653564 1366.050171,595.095032 1376.085571,634.452881   C1389.457275,686.895264 1365.509277,736.680908 1316.224243,758.898499   C1278.507690,775.901001 1229.246826,765.431580 1200.270630,734.919678   C1165.090210,697.874878 1160.626221,639.263306 1194.703125,596.726196  z" id="svg_9"/></g></svg>